<?xml version="1.0" encoding="utf-8"?>
<svg version="1.1" id="Layer_1" xmlns="http://www.w3.org/2000/svg" x="0px" y="0px" width="100%" viewBox="0 0 2079 1024" enable-background="new 0 0 2079 1024">
  <defs>
    <radialGradient id="paint0_radial_4_157" cx="0" cy="0" r="1" gradientUnits="userSpaceOnUse" gradientTransform="matrix(2925.405602, 119.172339, -20.53738, 504.145224, 533.950088, 136.760805)">
      <stop offset="0.5" stop-color="#FF5500"/>
      <stop offset="1" stop-color="#BDF700"/>
    </radialGradient>
    <radialGradient id="paint1_radial_4_157" cx="0" cy="0" r="1" gradientUnits="userSpaceOnUse" gradientTransform="matrix(2925.405602, 119.172339, -20.53738, 504.145224, 533.950088, 136.760805)">
      <stop offset="0.5" stop-color="#FF5500"/>
      <stop offset="1" stop-color="#BDF700"/>
    </radialGradient>
    <radialGradient id="paint2_radial_4_157" cx="0" cy="0" r="1" gradientUnits="userSpaceOnUse" gradientTransform="matrix(2925.405602, 119.172339, -20.53738, 504.145224, 533.950088, 136.760805)">
      <stop offset="0.5" stop-color="#FF5500"/>
      <stop offset="1" stop-color="#BDF700"/>
    </radialGradient>
    <radialGradient id="paint3_radial_4_157" cx="0" cy="0" r="1" gradientUnits="userSpaceOnUse" gradientTransform="matrix(2925.405602, 119.172339, -20.53738, 504.145224, 533.950088, 136.760805)">
      <stop offset="0.5" stop-color="#FF5500"/>
      <stop offset="1" stop-color="#BDF700"/>
    </radialGradient>
    <radialGradient id="gradient-5" cx="0" cy="0" r="1" gradientUnits="userSpaceOnUse" gradientTransform="matrix(2924.908138, 119.15208, -20.533889, 504.059497, -568.396785, 562.759655)">
      <stop offset="0.5" stop-color="#FF5500"/>
      <stop offset="1" stop-color="#BDF700"/>
    </radialGradient>
    <radialGradient id="gradient-6" cx="0" cy="0" r="1" gradientUnits="userSpaceOnUse" gradientTransform="matrix(2924.908138, 119.15208, -20.533889, 504.059497, -568.396785, 562.759655)">
      <stop offset="0.5" stop-color="#FF5500"/>
      <stop offset="1" stop-color="#BDF700"/>
    </radialGradient>
    <radialGradient id="gradient-7" cx="0" cy="0" r="1" gradientUnits="userSpaceOnUse" gradientTransform="matrix(2924.908138, 119.15208, -20.533889, 504.059497, -568.396785, 562.759655)">
      <stop offset="0.5" stop-color="#FF5500"/>
      <stop offset="1" stop-color="#BDF700"/>
    </radialGradient>
    <radialGradient id="gradient-8" cx="0" cy="0" r="1" gradientUnits="userSpaceOnUse" gradientTransform="matrix(2924.908138, 119.15208, -20.533889, 504.059497, -568.396785, 562.759655)">
      <stop offset="0.5" stop-color="#FF5500"/>
      <stop offset="1" stop-color="#BDF700"/>
    </radialGradient>
    <radialGradient id="gradient-9" cx="0" cy="0" r="1" gradientUnits="userSpaceOnUse" gradientTransform="matrix(2924.908138, 119.15208, -20.533889, 504.059497, -568.396785, 562.759655)">
      <stop offset="0.5" stop-color="#FF5500"/>
      <stop offset="1" stop-color="#BDF700"/>
    </radialGradient>
    <linearGradient id="gradient-border" x1="0%" y1="0%" x2="100%" y2="100%">
      <stop offset="0.6" stop-color="#FF5500"/>
      <stop offset="1" stop-color="#BDF700"/>
    </linearGradient>
  </defs>
  <path d=" M2080.000000,104.000000 C2080.000000,377.699402 2080.000000,651.398804 2079.623535,925.658752 C2078.834229,926.895752 2078.158203,927.531738 2078.047119,928.254639 C2074.852295,949.023926 2065.721680,967.200867 2052.319580,982.952332 C2036.428467,1001.628845 2016.717529,1015.003662 1992.568848,1021.056824 C1987.062378,1022.437134 1981.523804,1023.688965 1976.000000,1025.000000 C1352.633911,1025.000000 729.267883,1025.000000 105.302437,1024.604980 C102.877556,1024.134033 101.002037,1024.303833 99.234161,1023.944397 C78.538399,1019.735596 59.482590,1011.632751 43.481583,997.777222 C24.540222,981.375549 10.639511,961.472412 4.829329,936.580933 C3.908867,932.637512 2.293879,928.856262 1.000001,925.000000 C1.000000,650.633911 1.000000,376.267883 1.372752,101.330917 C2.163387,99.549377 2.755275,98.369171 2.973194,97.123535 C6.547870,76.690521 15.321524,58.565281 28.711807,42.978722 C44.683273,24.387611 64.324043,10.995673 88.442596,4.934850 C93.943932,3.552403 99.479950,2.307960 105.000000,1.000000 C728.366028,1.000000 1351.732056,1.000000 1975.697510,1.394968 C1987.908447,2.433951 1998.695068,6.212467 2009.233887,10.725628 C2024.585205,17.299593 2037.637573,27.106106 2048.926270,39.387436 C2059.557617,50.953491 2067.919678,63.910023 2072.931396,78.807625 C2075.708984,87.063385 2077.670654,95.593521 2080.000000,104.000000 M23.000000,180.500000 C23.000000,423.664154 22.995129,666.828308 23.013815,909.992493 C23.014788,922.653687 26.324160,934.608826 31.548609,946.025940 C38.793530,961.858337 49.458263,975.029175 63.675381,985.087891 C79.164589,996.046509 96.389580,1002.913513 115.498985,1002.916687 C731.996521,1003.017822 1348.494019,1003.002014 1964.991577,1002.986328 C1977.652466,1002.986023 1989.584717,999.625916 2001.031006,994.463867 C2016.938965,987.289612 2030.043701,976.521667 2040.067383,962.309875 C2050.980469,946.836853 2057.919678,929.645325 2057.927246,910.502014 C2058.034912,645.669739 2058.004395,380.837463 2057.986816,116.005165 C2057.985840,103.342979 2054.673828,91.389534 2049.449707,79.972244 C2042.205200,64.139259 2031.539307,50.969971 2017.322998,40.910618 C2001.834106,29.950853 1984.607910,23.086603 1965.498901,23.083458 C1349.834717,22.982134 734.170471,22.978926 118.506310,23.193510 C108.931015,23.196846 99.056236,25.103529 89.846603,27.870596 C72.454338,33.096165 57.968109,43.173737 46.179630,57.222862 C31.852810,74.297096 23.543512,93.693901 23.092083,116.002113 C22.663931,137.160034 23.000000,158.333420 23.000000,180.500000 z" fill="url(#gradient-border)"/>
  <path d="M 533.95 136.701 L 603.647 136.701 L 603.647 229.476 L 670.488 136.701 L 754.171 136.701 L 643.099 250.163 L 851.258 136.701 L 851.258 215.548 L 668.565 282.855 L 851.258 267.471 L 851.258 342.47 L 668.565 327.086 L 851.258 394.394 L 851.258 473.24 L 643.099 359.779 L 754.171 473.24 L 670.488 473.24 L 603.647 380.466 L 603.647 473.24 L 533.95 473.24 L 533.95 136.701 Z" fill="url(#paint0_radial_4_157)"/>
  <path d="M 893.566 136.701 L 978.18 136.701 L 978.18 473.24 L 893.566 473.24 L 893.566 136.701 Z" fill="url(#paint1_radial_4_157)"/>
  <path d="M 1171.42 473.24 L 1082.49 266.014 L 1092.58 473.24 L 1020.43 473.24 L 1020.43 136.701 L 1098.81 136.701 L 1187.74 343.462 L 1177.65 136.701 L 1249.8 136.701 L 1249.8 473.24 L 1171.42 473.24 Z" fill="url(#paint2_radial_4_157)"/>
  <path d="M 1281.5 305 C 1281.5 208.846 1329.11 130 1413.26 130 C 1497.41 130 1545.02 208.846 1545.02 305 C 1545.02 401.154 1497.41 480 1413.26 480 C 1329.11 480 1281.5 401.154 1281.5 305 Z M 1413.26 426.154 C 1437.33 426.154 1455.1 380.466 1455.1 305 C 1455.1 229.534 1437.33 183.846 1413.26 183.846 C 1389.19 183.846 1371.42 229.534 1371.42 305 C 1371.42 380.466 1389.25 426.154 1413.26 426.154 Z" fill="url(#paint3_radial_4_157)"/>
  <path d="M 696.305 671.364 C 696.305 743.496 645.323 784.341 573.251 784.341 L 557.867 784.341 L 557.867 899.239 L 474.2 899.239 L 474.2 562.758 L 573.251 562.758 C 645.323 562.702 696.305 594.921 696.305 671.364 Z M 557.811 619.45 L 557.811 729.514 L 567.888 729.514 C 591.954 729.514 612.579 710.751 612.579 671.364 C 612.579 631.921 591.895 619.45 567.888 619.45 L 557.811 619.45 Z" fill="url(#gradient-5)"/>
  <path d="M 714.076 730.968 C 714.076 634.834 761.679 556 845.813 556 C 929.949 556 977.552 634.834 977.552 730.968 C 977.552 827.107 929.949 905.94 845.813 905.94 C 761.62 905.94 714.076 827.107 714.076 730.968 Z M 845.757 852.102 C 869.819 852.102 887.59 806.423 887.59 730.968 C 887.59 655.517 869.819 609.835 845.757 609.835 C 821.694 609.835 803.923 655.517 803.923 730.968 C 803.923 806.423 821.75 852.102 845.757 852.102 Z" fill="url(#gradient-6)"/>
  <path d="M 1009.19 562.702 L 1093.79 562.702 L 1093.79 899.183 L 1009.19 899.183 L 1009.19 562.702 Z" fill="url(#gradient-7)"/>
  <path d="M 1214.46 761.733 C 1151.47 722.812 1127.93 697.351 1127.93 653.593 C 1127.93 595.447 1169.77 556 1232.75 556 C 1291.42 556 1330.81 584.374 1342.35 636.288 L 1344.27 644.97 L 1266.9 658.43 C 1262.59 624.287 1250.52 608.44 1232.29 608.44 C 1215.91 608.44 1205.83 619.509 1205.83 636.814 C 1205.83 653.653 1213.99 668.045 1260.14 695.427 C 1323.59 733.419 1343.81 757.947 1343.81 804.092 C 1343.81 866.087 1300.51 906 1234.21 906 C 1176.53 906 1132.3 879.547 1120.77 824.254 L 1118.84 815.105 L 1198.67 800.188 C 1202.98 836.255 1215.51 853.56 1236.66 853.56 C 1250.58 853.56 1263.57 842.025 1263.57 821.337 C 1263.46 798.733 1248.6 782.883 1214.46 761.733 Z" fill="url(#gradient-8)"/>
  <path d="M 1372.12 562.702 L 1456.72 562.702 L 1456.72 702.595 L 1515.86 562.702 L 1602.39 562.702 L 1510.56 725.669 L 1604.78 899.239 L 1511.03 899.239 L 1456.72 759.346 L 1456.72 899.239 L 1372.12 899.239 L 1372.12 562.702 Z" fill="url(#gradient-9)"/>
</svg>